<svg id="wave" style="transform:rotate(180deg); transition: 0.3s" viewBox="0 0 1440 100" version="1.1" xmlns="http://www.w3.org/2000/svg"><defs><linearGradient id="sw-gradient-0" x1="0" x2="0" y1="1" y2="0"><stop stop-color="rgba(255, 255, 0, 1)" offset="0%"></stop><stop stop-color="rgba(255, 255, 0, 1)" offset="100%"></stop></linearGradient></defs><path style="transform:translate(0, 0px); opacity:1" fill="url(#sw-gradient-0)" d="M0,20L10,28.3C20,37,40,53,60,56.7C80,60,100,50,120,45C140,40,160,40,180,35C200,30,220,20,240,18.3C260,17,280,23,300,33.3C320,43,340,57,360,51.7C380,47,400,23,420,20C440,17,460,33,480,48.3C500,63,520,77,540,81.7C560,87,580,83,600,81.7C620,80,640,80,660,80C680,80,700,80,720,73.3C740,67,760,53,780,45C800,37,820,33,840,40C860,47,880,63,900,70C920,77,940,73,960,61.7C980,50,1000,30,1020,25C1040,20,1060,30,1080,31.7C1100,33,1120,27,1140,26.7C1160,27,1180,33,1200,41.7C1220,50,1240,60,1260,58.3C1280,57,1300,43,1320,35C1340,27,1360,23,1380,23.3C1400,23,1420,27,1430,28.3L1440,30L1440,100L1430,100C1420,100,1400,100,1380,100C1360,100,1340,100,1320,100C1300,100,1280,100,1260,100C1240,100,1220,100,1200,100C1180,100,1160,100,1140,100C1120,100,1100,100,1080,100C1060,100,1040,100,1020,100C1000,100,980,100,960,100C940,100,920,100,900,100C880,100,860,100,840,100C820,100,800,100,780,100C760,100,740,100,720,100C700,100,680,100,660,100C640,100,620,100,600,100C580,100,560,100,540,100C520,100,500,100,480,100C460,100,440,100,420,100C400,100,380,100,360,100C340,100,320,100,300,100C280,100,260,100,240,100C220,100,200,100,180,100C160,100,140,100,120,100C100,100,80,100,60,100C40,100,20,100,10,100L0,100Z"></path></svg>