<svg version="1.1" viewBox="0.0 0.0 566.9291338582677 377.9527559055118" fill="none" stroke="none" stroke-linecap="square" stroke-miterlimit="10" xmlns:xlink="http://www.w3.org/1999/xlink" xmlns="http://www.w3.org/2000/svg"><clipPath id="p.0"><path d="m0 0l566.92914 0l0 377.95276l-566.92914 0l0 -377.95276z" clip-rule="nonzero"/></clipPath><g clip-path="url(#p.0)"><path fill="#000000" fill-opacity="0.0" d="m0 0l566.92914 0l0 377.95276l-566.92914 0z" fill-rule="evenodd"/><defs><linearGradient id="p.1" gradientUnits="userSpaceOnUse" gradientTransform="matrix(15.058939663732362 0.0 0.0 15.058939663732362 0.0 0.0)" spreadMethod="pad" x1="11.294277086316837" y1="13.110243487135012" x2="26.3532167500492" y2="13.110243487135012"><stop offset="0.0" stop-color="#ff0000"/><stop offset="0.5" stop-color="#00ff00"/><stop offset="1.0" stop-color="#0000ff"/></linearGradient></defs><path fill="url(#p.1)" d="m170.07983 178.52873l226.77167 0l0 18.897629l-226.77167 0z" fill-rule="evenodd"/><path stroke="#000000" stroke-width="3.0" stroke-linejoin="round" stroke-linecap="butt" d="m170.07983 178.52873l226.77167 0l0 18.897629l-226.77167 0z" fill-rule="evenodd"/><defs><linearGradient id="p.2" gradientUnits="userSpaceOnUse" gradientTransform="matrix(10.64834232245615 0.0 0.0 10.64834232245615 0.0 0.0)" spreadMethod="pad" x1="8.873511586598136" y1="1.7745738988508921" x2="8.873473073092986" y2="12.42291622123739"><stop offset="0.0" stop-color="#ff0000"/><stop offset="0.5" stop-color="#00ff00"/><stop offset="1.0" stop-color="#0000ff"/></linearGradient></defs><path fill="url(#p.2)" d="m94.48819 75.59055l0 0c0 -31.310635 84.607605 -56.692917 188.97638 -56.692917c104.368774 0 188.97638 25.38228 188.97638 56.692917c0 31.31063 -84.607605 56.69291 -188.97638 56.69291c-104.368774 0 -188.97638 -25.382278 -188.97638 -56.69291z" fill-rule="evenodd"/><defs><linearGradient id="p.3" gradientUnits="userSpaceOnUse" gradientTransform="matrix(10.64834232245615 0.0 0.0 10.64834232245615 0.0 0.0)" spreadMethod="pad" x1="8.873511586598136" y1="1.7745738988508921" x2="8.873473073092986" y2="12.42291622123739"><stop offset="0.0" stop-color="#ff0000"/><stop offset="0.5" stop-color="#00ff00"/><stop offset="1.0" stop-color="#0000ff"/></linearGradient></defs><path fill="url(#p.3)" d="m203.23709 58.63517l0 0c0 -3.2615242 8.813293 -5.90551 19.685043 -5.90551c10.87175 0 19.685043 2.6439857 19.685043 5.90551c0 3.2615242 -8.813293 5.90551 -19.685043 5.90551c-10.87175 0 -19.685043 -2.6439857 -19.685043 -5.90551m121.08487 0l0 0c0 -3.2615242 8.813293 -5.90551 19.685028 -5.90551c10.871765 0 19.685059 2.6439857 19.685059 5.90551c0 3.2615242 -8.813293 5.90551 -19.685059 5.90551c-10.871735 0 -19.685028 -2.6439857 -19.685028 -5.90551" fill-rule="evenodd"/><path fill="#000000" fill-opacity="0.0" d="m181.03813 100.314705q102.42644 21.10337 204.61366 0" fill-rule="evenodd"/><path fill="#000000" fill-opacity="0.0" d="m94.48819 75.59055l0 0c0 -31.310635 84.607605 -56.692917 188.97638 -56.692917c104.368774 0 188.97638 25.38228 188.97638 56.692917c0 31.31063 -84.607605 56.69291 -188.97638 56.69291c-104.368774 0 -188.97638 -25.382278 -188.97638 -56.69291z" fill-rule="evenodd"/><path fill="#000000" fill-opacity="0.2" d="m203.23709 58.63517l0 0c0 -3.2615242 8.813293 -5.90551 19.685043 -5.90551c10.87175 0 19.685043 2.6439857 19.685043 5.90551c0 3.2615242 -8.813293 5.90551 -19.685043 5.90551c-10.87175 0 -19.685043 -2.6439857 -19.685043 -5.90551m121.08487 0l0 0c0 -3.2615242 8.813293 -5.90551 19.685028 -5.90551c10.871765 0 19.685059 2.6439857 19.685059 5.90551c0 3.2615242 -8.813293 5.90551 -19.685059 5.90551c-10.871735 0 -19.685028 -2.6439857 -19.685028 -5.90551" fill-rule="evenodd"/><path stroke="#000000" stroke-width="3.0" stroke-linejoin="round" stroke-linecap="butt" d="m203.23709 58.63517l0 0c0 -3.2615242 8.813293 -5.90551 19.685043 -5.90551c10.87175 0 19.685043 2.6439857 19.685043 5.90551c0 3.2615242 -8.813293 5.90551 -19.685043 5.90551c-10.87175 0 -19.685043 -2.6439857 -19.685043 -5.90551m121.08487 0l0 0c0 -3.2615242 8.813293 -5.90551 19.685028 -5.90551c10.871765 0 19.685059 2.6439857 19.685059 5.90551c0 3.2615242 -8.813293 5.90551 -19.685059 5.90551c-10.871735 0 -19.685028 -2.6439857 -19.685028 -5.90551" fill-rule="evenodd"/><path stroke="#000000" stroke-width="3.0" stroke-linejoin="round" stroke-linecap="butt" d="m181.03813 100.314705q102.42644 21.10337 204.61366 0" fill-rule="evenodd"/><path stroke="#000000" stroke-width="3.0" stroke-linejoin="round" stroke-linecap="butt" d="m94.48819 75.59055l0 0c0 -31.310635 84.607605 -56.692917 188.97638 -56.692917c104.368774 0 188.97638 25.38228 188.97638 56.692917c0 31.31063 -84.607605 56.69291 -188.97638 56.69291c-104.368774 0 -188.97638 -25.382278 -188.97638 -56.69291z" fill-rule="evenodd"/><defs><linearGradient id="p.4" gradientUnits="userSpaceOnUse" gradientTransform="matrix(15.058950557107377 0.0 0.0 15.058950557107377 0.0 0.0)" spreadMethod="pad" x1="15.686345299970089" y1="8.784420334679163" x2="15.68629083336097" y2="23.84337089168804"><stop offset="0.0" stop-color="#ff0000"/><stop offset="0.5" stop-color="#00ff00"/><stop offset="1.0" stop-color="#0000ff"/></linearGradient></defs><path fill="url(#p.4)" d="m236.2199 359.05615l47.244095 -226.77165l47.24411 226.77165z" fill-rule="evenodd"/><path stroke="#000000" stroke-width="3.0" stroke-linejoin="round" stroke-linecap="butt" d="m236.2199 359.05615l47.244095 -226.77165l47.24411 226.77165z" fill-rule="evenodd"/></g></svg>
